<svg xmlns="http://www.w3.org/2000/svg" xmlns:xlink="http://www.w3.org/1999/xlink" viewBox="0 0 636 300"><defs><clipPath id="a"><rect x="318.773" y="-129.781" width="65.461" height="61.145" rx="6.524" ry="6.524" fill="none"/></clipPath></defs><title>swimlane-multiplayer-game</title><g clip-path="url(#a)"><path d="M421.614-91.924l-18.955,13.6-30.13-1.926,0-.006a4.717,4.717,0,0,0-5.085-2.763l-32.685,5.233-.031-.078-9.193,1.96a13.035,13.035,0,0,0-8.613,6.3L300.234-40.291a9.4,9.4,0,0,0,1.729,11.557l19.466,18.208s4.452-.411,7.192-7.809c0-.1-13.712-17.686-13.712-17.686l11.843-9.167a175.379,175.379,0,0,0,7.46,18.7c-4.3,8.051-6.721,31.373-6.721,31.373s19.523,5.754,30.619-10.481c8.221,5.138,26.1,1.757,26.1,1.757S377.5-22.206,377.77-30.751c.168-5.25,1.94-14.076,3.281-20.1a20.582,20.582,0,0,0-.692-11.354l22.368-.888a3.926,3.926,0,0,0,2.419-.959L428.6-84.436c0-4.877-6.987-7.488-6.987-7.488" fill="#939393"/></g><path d="M578.491,272.5H52.947a3.008,3.008,0,0,1-2.863-3,2.941,2.941,0,0,1,2.863-3H578.491a2.882,2.882,0,0,1,2.863,3A2.943,2.943,0,0,1,578.491,272.5Z" fill="#c8c8c8"/><rect x="421.598" y="225.657" width="9.129" height="42.6" fill="#939393"/><rect x="533.5" y="225.5" width="13" height="43" fill="#b2b2b2"/><polygon points="378.5 216.5 378.5 268.5 388.5 268.5 388.5 227.5 412.5 227.5 412.5 268.5 421.5 268.5 421.5 227.5 495.5 227.5 495.5 268.5 504.5 268.5 504.5 216.5 378.5 216.5" fill="#b2b2b2"/><polygon points="387.982 226.764 387.982 262.383 381.956 255.273 374.853 259.576 374.853 268.257 387.982 268.257 392.963 268.257 397.111 268.257 397.111 226.764 387.982 226.764" fill="#939393"/><polygon points="504.66 216.657 504.66 268.258 513.789 268.258 513.789 227.167 541.989 227.167 541.989 268.258 551.118 268.258 551.118 216.657 504.66 216.657" fill="#939393"/><rect x="490.476" y="211.973" width="11.665" height="4.685"/><rect x="460.443" y="183.295" width="8.057" height="33.363"/><polygon points="557.403 193.557 557.403 88.702 363.483 88.702 363.483 193.557 455.478 193.557 455.478 211.974 423.778 211.974 423.778 216.657 455.478 216.657 465.408 216.657 491.423 216.657 491.423 211.974 465.408 211.974 465.408 193.557 557.403 193.557" fill="#505050"/><rect x="556.455" y="88.702" width="3.045" height="104.855"/><rect x="367.5" y="92.5" width="184" height="93.833" fill="#c2c2c2"/><rect x="483.84" y="206.281" width="41.323" height="10.377" fill="#737373"/><rect x="525.163" y="206.281" width="16.206" height="10.377" fill="#505050"/><rect x="485.779" y="210.41" width="19.256" height="1.694" fill="#505050"/><path d="M521.424,211.257a1.765,1.765,0,1,1-1.765-1.764,1.765,1.765,0,0,1,1.765,1.764" fill="#505050"/><path d="M456.293,166.193,423.8,150.722l-16.692-14.676H402.5l-.57,1.31a5.177,5.177,0,0,0,.57,5.118,3.5,3.5,0,0,0,.465,4.564l.244.227a3.274,3.274,0,0,0,.747,4.019l5.109,4.422,8.326,2.307,29.446,24.39a7.563,7.563,0,0,0,9.225.327l10.983-7.856Z" fill="#917861"/><path d="M394.625,129.333a2.223,2.223,0,0,0,1.468,2.7l3.744,1.2.908-4.444-3.332-1a2.223,2.223,0,0,0-2.788,1.548" fill="#917861"/><path d="M343.22,118.1a1.907,1.907,0,0,0-2.462-1.032l-2.015.8a1.9,1.9,0,0,0-2.22-2.92L331.378,117l1.677,4.009,2.758-1.414,1.476,3.531,5.044-2.583a1.909,1.909,0,0,0,.887-2.438" fill="#b48f75"/><path d="M331.386,110.239a2.219,2.219,0,0,0-2.512.465l-3.968,4.061,4.808,2.407,2.56-3.644a2.217,2.217,0,0,0-.888-3.289" fill="#b48f75"/><path d="M344.126,122.7l-.339-2.177a2.194,2.194,0,0,0-2.47-1.836l-3.793.528-.145-.932a2.194,2.194,0,0,0-2.47-1.837L320.187,118.5l-2.5.326.11,8.14s3.906,6.967,7.365,3.686c1.471,1.976,4.381,4.924,6.923,1.68,2.63-3.358,8.054-6.048,10.735-7.234a2.236,2.236,0,0,0,1.3-2.393" fill="#282828"/><path d="M339.976,243.916l-1.427,18.516a5.435,5.435,0,0,0,5.419,5.852h24.758c5.025,0,9.3-2.136,11.765-5.874l.96-1.457c1.41-2.141,1.192-5.2-.561-7.85a1.287,1.287,0,0,0-1.437-.577l-9.814,3.728a5.8,5.8,0,0,1-4.519-.479l-4.432-2.279a7.534,7.534,0,0,1-3.519-3.813l-2.3-5.767Z" fill="#505050"/><path d="M311.1,208.582l9.96-45.413H266.292a8.04,8.04,0,0,1-7.767-6.933l-1.6-13.274a27.828,27.828,0,0,1,3.412-17.53,28.116,28.116,0,0,0,3.521-17.72l-2.384-19.826a14.956,14.956,0,0,0-14.448-12.9H229.138a5.932,5.932,0,0,0-4.685,2.29,16.369,16.369,0,0,0-8.354-2.29H168.09a5.958,5.958,0,0,0-5.915,6.67l17.976,149.483a8.446,8.446,0,0,0,8.386,7.439H315.111l-3.608-30Z" fill="#c2c2c2"/><path d="M279.557,163.169h-4.886a8.041,8.041,0,0,1-7.767-6.933l-1.6-13.274a27.821,27.821,0,0,1,3.411-17.53,28.116,28.116,0,0,0,3.522-17.72l-2.384-19.826a14.959,14.959,0,0,0-14.449-12.9h-8.379a14.958,14.958,0,0,1,14.449,12.9l2.384,19.826a28.123,28.123,0,0,1-3.522,17.72,27.828,27.828,0,0,0-3.412,17.53l1.6,13.274a8.04,8.04,0,0,0,7.767,6.933Z" fill="#e6e6e6"/><path d="M200.43,87.887l2.384,19.825a28.116,28.116,0,0,1-3.522,17.72,27.829,27.829,0,0,0-3.411,17.531l1.6,13.273a8.041,8.041,0,0,0,7.767,6.933h8.379a8.04,8.04,0,0,1-7.767-6.933l-1.6-13.273a27.83,27.83,0,0,1,3.412-17.531,28.123,28.123,0,0,0,3.522-17.72l-2.384-19.825a14.959,14.959,0,0,0-14.449-12.9h-8.379a14.96,14.96,0,0,1,14.449,12.9" fill="#e6e6e6"/><path d="M313.4,135.239l-9.2.595-9.65-16.453a22.123,22.123,0,0,0-6.039-16.852L285.723,99.6H264c-31.789,11.355-40.751,48-40.681,57.745l.086,12.1,15.677,10.443h48.439l-3.767-14.777a40.875,40.875,0,0,1,.824-22.962l18.709,21.02h13.131l7.836-25.088Z" fill="#021760"/><path d="M232.119,209.779a3.1,3.1,0,0,0-.044.88l1.129,10.489L296.7,209.779Z" fill="#939393"/><path d="M328.855,175.937a4.949,4.949,0,0,0,4.949-4.948v-2.872a4.949,4.949,0,0,0-4.949-4.948H318.308a7.289,7.289,0,0,0-7.243,6.48l-2.477,22.209H247.5l-2.478-22.209a7.287,7.287,0,0,0-7.243-6.48H227.229a4.948,4.948,0,0,0-4.948,4.948v2.872a4.948,4.948,0,0,0,4.948,4.948,4.948,4.948,0,0,1,4.917,4.4l1.286,11.521h-2.443a3.121,3.121,0,0,0-3.122,3.121v11.678a3.122,3.122,0,0,0,3.122,3.122H296.7L233.2,221.147l1.6,14.831a2.821,2.821,0,0,0,2.73,2.6H324.14a2.821,2.821,0,0,0,2.73-2.6l2.726-25.319a3.1,3.1,0,0,0-.044-.88h1.131a3.122,3.122,0,0,0,3.121-3.122V194.979a3.121,3.121,0,0,0-3.121-3.121h-8.031l1.286-11.521a4.948,4.948,0,0,1,4.917-4.4" fill="#b2b2b2"/><polygon points="246.521 269.454 242.032 269.454 239.637 238.581 248.915 238.581 246.521 269.454" fill="#939393"/><polygon points="319.539 269.454 315.05 269.454 312.655 238.581 321.933 238.581 319.539 269.454" fill="#939393"/><polygon points="197.443 269.454 192.954 269.454 190.559 238.581 199.837 238.581 197.443 269.454" fill="#939393"/><polygon points="270.461 269.454 265.972 269.454 263.578 238.581 272.855 238.581 270.461 269.454" fill="#939393"/><path d="M264.153,84.565l.1,5.486a28.035,28.035,0,0,1-2.968,13.03,5.51,5.51,0,0,0,1.1,6.89,20.1,20.1,0,0,0,12.992,4.778h4.329a3,3,0,0,0,2.724-1.719A13.283,13.283,0,0,1,294.8,105h1.36l-4.788-12.59Z" fill="#d2b69b"/><path d="M282.4,103.679a17.191,17.191,0,0,0-6.838,11.07h4.145a3,3,0,0,0,2.722-1.72A13.287,13.287,0,0,1,294.8,105h1.36l-1.189-3.127H284.887Z" fill="#f8d5b9"/><path d="M261.283,103.081a5.575,5.575,0,0,0,.24,5.9c.86.2,11.478,2.524,19.043-6.169-4.131-3.59-13.442-8.715-16.407-10.313a26.371,26.371,0,0,1-2.876,10.58" fill="#b48f75"/><path d="M281.968,171.761l51.429,2.77a15.212,15.212,0,0,1,13.862,11.2l12.717,64.985h-21.01L324.8,191.858H274.65Z" fill="#99280d"/><path d="M251.765,269.865H288.49a5.588,5.588,0,0,0,4.936-2.967,3.113,3.113,0,0,0-2.363-4.549l-11.914-1.494a10.08,10.08,0,0,1-6.467-3.523l-4.27-5.093.49-4.759-17.911-3.042L246.5,263.189a5.415,5.415,0,0,0,5.266,6.676" fill="#505050"/><path d="M245.019,169.649l27.931-.5a15.839,15.839,0,0,1,15.458,20.381l-19.042,63.588-21.278-3.878,10.1-57.38H247.5Z" fill="#ba3615"/><path d="M289.5,53.166h0A22.562,22.562,0,0,0,264.746,72.6a3.606,3.606,0,0,0-3.895,3.209l-.421,3.951a5.4,5.4,0,0,0,3.139,5.492,22.565,22.565,0,0,0,20.165,21.968l9.851,1.05c6.953.742,12.215-5.843,12.957-12.8l3-17.471A22.57,22.57,0,0,0,289.5,53.166" fill="#d2b69b"/><path d="M296.3,65.305a33.507,33.507,0,0,1,2.777,11.4,15.481,15.481,0,0,0,2.4,7.3l3.393,5.353a2.312,2.312,0,0,1-2.2,3.537l-2.217-.236a2.577,2.577,0,0,0-2.833,2.287l-.361,3.392,8.426.9a16.759,16.759,0,0,0,.857-3.77l3-17.47a22.471,22.471,0,0,0-4.132-15.581l-10.9-1.162Z" fill="#f8d5b9"/><path d="M311.744,57.882l-1.582-2.932L308.5,59.286a12.4,12.4,0,0,0-4.1-7.513l-.681-.6-3.344,3.481L288.73,51.116a18.812,18.812,0,0,0-24.181,16l-.587,5.5a3.651,3.651,0,0,1,.863-.021,3.612,3.612,0,0,1,3.209,3.975l-.9,8.441a.89.89,0,0,1-.979.792l-.922-.1a5.375,5.375,0,0,1-2.278-.788l.1,3.353c.706,18.21,23.872,22.758,35.4,23.894,3.977.392,6.455-2.189,7.6-6.018.965-3.236,1.026-10.006-.219-11.294-1.58-1.632-4.491-1.5-6.65-.8l-.278.089a22.444,22.444,0,0,0-13.4-3.518,81.715,81.715,0,0,0-9.019.806l-6.357,1.607.968-4.03a45.248,45.248,0,0,0,1.248-11.288l-.074-4.769,1.692-1a8.324,8.324,0,0,0,4.05-6.288l.286-2.681,17.712,4.533a21.377,21.377,0,0,0,10.447.04,6.859,6.859,0,0,0,2.816-1.456l1.118-.962a5.892,5.892,0,0,0,1.345-7.262" fill="#282828"/><path d="M290.2,81.14a1.761,1.761,0,1,1-1.564-1.938A1.76,1.76,0,0,1,290.2,81.14" fill="#021760"/><path d="M308.352,83.076a1.76,1.76,0,1,1-1.564-1.938,1.762,1.762,0,0,1,1.564,1.938" fill="#021760"/><path d="M298.824,100.208l-4.106-.438a3.092,3.092,0,0,1-2.747-3.4l10.256,1.094a3.092,3.092,0,0,1-3.4,2.747" fill="#fff"/><path d="M310.649,78.735l-7.128-.76L292.38,76.787l-9.637-1.028-15.305-1.631.485,1.242,12.412,1.337a2.787,2.787,0,0,0-.682,1.547l-.491,4.6a2.813,2.813,0,0,0,2.5,3.09l9.637,1.028c.1.01.2.015.3.015a2.811,2.811,0,0,0,2.789-2.509l.49-4.6a2.781,2.781,0,0,0-.341-1.656l6.579.7a2.772,2.772,0,0,0-.681,1.547l-.151,1.324,1.03,1.969.311-3.166a1.6,1.6,0,0,1,.59-1.083,1.614,1.614,0,0,1,1.183-.348l7.128.76a1.612,1.612,0,0,1,1.431,1.773l-.49,4.6a1.613,1.613,0,0,1-1.773,1.431l-6.32-.633.913,1.259,5.28.564c.1.01.2.016.3.016a2.809,2.809,0,0,0,2.789-2.51l.491-4.6a2.811,2.811,0,0,0-2.494-3.09M293.684,79.75l-.491,4.6a1.613,1.613,0,0,1-1.772,1.43l-9.637-1.027a1.614,1.614,0,0,1-1.431-1.773l.491-4.6a1.61,1.61,0,0,1,1.772-1.43l9.637,1.028a1.611,1.611,0,0,1,1.431,1.772"/><path d="M265.423,74.442a2.812,2.812,0,0,0-3.094,2.5L262,80.015a4.208,4.208,0,0,0,3.738,4.631l1.406.15.262-2.448-.578-.84a1.879,1.879,0,0,1,.608-2.689l.369-.213.114-1.07a2.812,2.812,0,0,0-2.5-3.094" fill="#b48f75"/><polygon points="269.367 253.115 248.089 249.237 249.457 241.464 271.726 245.235 269.367 253.115" fill="#df6c47"/><path d="M358.818,244.8h0l-11.559-59.063a15.211,15.211,0,0,0-13.862-11.2l-20.74-1.117h0l20.993,6.748a13.034,13.034,0,0,1,8.8,9.941l10.015,52.067h-15.56l2.059,8.549h21.01Z" fill="#ba3615"/><path d="M324.8,191.858l6.864-7.691s-8.64.315-6.864,7.691" fill="#ba3615"/><polygon points="258.192 191.858 259.938 183.295 246.541 183.295 247.497 191.858 258.192 191.858" fill="#99280d"/><path d="M241.93,125.831l13.613,38.877a6.626,6.626,0,0,0,6.253,4.435h7.464l38.71-25.55-6.784-9.75-29.813,12.672-9.68-28.028a10.543,10.543,0,0,0-19.763,7.344" fill="#09538f"/><path d="M271.373,146.516l-8.318,3.583s1.949-6.671,8.318-3.583" fill="#021760"/><path d="M324.252,113.269l-13.372,5.106a8.776,8.776,0,0,0-4.892,4.641l-3.971,12.009,5.953,8.567,1.7-.242a42,42,0,0,0,14.406-4.838l1.9-1.053,2.936-2.012a2.707,2.707,0,0,0,.016-4.458l-.559-.389,1.408-.213a1.249,1.249,0,0,0,1.062-1.234v-1.488a1.25,1.25,0,0,0-.922-1.205l-2.669-.723,3.256-.4a2.172,2.172,0,0,0-.339-4.327l-8.828.3,2.918-2.492h6.193a3.068,3.068,0,0,0,2.865-1.972l.494-1.293Z" fill="#f8d5b9"/><path d="M301.186,133.842l5.355-11.865,8.377-1.653a3.006,3.006,0,0,1,2.619.74l1.928,1.778a3.008,3.008,0,0,1,.913,2.789l-.117.592,1.329.624a3.005,3.005,0,0,1,1.535,3.775l-.482,1.286a3,3,0,0,1-.237,4.339l-4.086,3.5-10.933,3.012Z" fill="#d2b69b"/><path d="M448.442,104.119v9.538A31.877,31.877,0,0,0,457.78,136.2l3.183,3.185a31.876,31.876,0,0,0,9.338-22.541V104.119Z" fill="#282828"/><path d="M480,79.006l1.022,8.968a12.841,12.841,0,0,0,4.585,8.695l4.477,3.717a37.134,37.134,0,0,1,13.256,25.141l.164,1.768a26.734,26.734,0,0,1-29.089-24.149l-2.081-22.434Z" fill="#282828"/><path d="M478.907,111.43h.835a28.757,28.757,0,0,1,25.706,15.863l.952,1.9c5.2,11.644,4.866,40.684,4.2,57.1H459.164L455.5,176.033l-2.507-3.334a18.777,18.777,0,0,1-2.1-19.041l.3-.663a47.056,47.056,0,0,0,4.2-18.969,23.533,23.533,0,0,1,23.514-22.6" fill="#ffa940"/><path d="M468.369,167.187s3.968,13.954,11.054,19.107H510.6s6.238-57.071-12.784-68.476l.332,1.285a33.321,33.321,0,0,1-1.532,21.212l-2.814,6.714-5.367-.436Z" fill="#f08400"/><path d="M484.733,110.455A16.174,16.174,0,0,1,479.16,98l.108-7.31a22.5,22.5,0,0,0,.072-4.79l-.8-8.643c-1.131-12.185-11.568-21.683-23.786-20.986C441.927,57,433.1,72.506,434.28,85.189l.762,11.6c.72,7.757,9.613,12.9,17.368,12.179l11.316,4.234,5.819,6.618,19.307-5.792Z" fill="#ab845f"/><path d="M466.3,114.444a15.749,15.749,0,0,0-8-6.074,31.119,31.119,0,0,0,2.8-4.684.511.511,0,0,0-.678-.691c-2.352,1.117-7.667,3.51-10.637,3.945-5.157.755-6.7-2.556-7.074-6.526l-.276-2.98a1.239,1.239,0,0,0-1.205-1.125l-1.258-.029a2.475,2.475,0,0,1-2.167-4s2.063-3.859,3.026-6.018a4.422,4.422,0,0,0,.361-2.215L440.12,72.518l-3.509-.857a31.066,31.066,0,0,0-2.56,14.674,66.207,66.207,0,0,0,.379,12.134c.828,4.82,2.819,10.528,7.765,12.176,3.97,1.323,9.8.453,9.8.453a12.865,12.865,0,0,1,11.29,4.841l4.485,5.683,3.1-1.118Z" fill="#b48f75"/><path d="M454.22,84.541a2.06,2.06,0,1,0-1.862,2.242,2.062,2.062,0,0,0,1.862-2.242"/><path d="M438.154,85.954a2.06,2.06,0,1,0-1.861,2.242,2.061,2.061,0,0,0,1.861-2.242"/><path d="M436.669,100.623l13.525-1.256-3.16,2.665a7.052,7.052,0,0,1-10.365-1.409" fill="#fff"/><path d="M452.413,100.2a3.525,3.525,0,0,0-4.817-4Z" fill="#b48f75"/><path d="M465.047,123.644v-5.108c6.611-8.028,13.215-7.783,21.75-6.291l6.566,5.585.436,2.94-28.752,9.259Z" fill="#ffa940"/><rect x="413.278" y="129.528" width="4.836" height="1.375" transform="translate(108.904 439.469) rotate(-62.622)" fill="#e6e6e6"/><path d="M414.017,133.233,401.4,126.751a2.094,2.094,0,0,0-2.8.876l-.991,1.854a2.131,2.131,0,0,0,.419,2.565c2.041,1.913,6.079,6.044,7.39,9.9,1.782,5.235,8.082-.333,8.082-.333l2.662-7.3Z" fill="#e6e6e6"/><path d="M420.494,133.233l-12.614-6.482a2.094,2.094,0,0,0-2.8.876l-.991,1.854a2.131,2.131,0,0,0,.419,2.565c2.041,1.913,6.079,6.044,7.39,9.9,1.782,5.235,8.082-.333,8.082-.333l2.662-7.3Z" fill="#fff"/><path d="M475.651,130.005l-.332.024-14.693,27.485L431.593,146.07a4.794,4.794,0,0,1-2.965-3.623L427.3,135l-5.862-9.107-5.638-2.563-.321,1a3.272,3.272,0,0,0,1.641,3.917l2.432,1.227L420.937,135l-11.606-5.616-8.585-.6V130.3a2.957,2.957,0,0,0,2.454,2.914l5.285.909,3.308,1.923-4.386.4a2.462,2.462,0,0,0-2.2,2.048l-.145.872a1.545,1.545,0,0,0,1.257,1.777l-.841.812a2.552,2.552,0,0,0-.345,3.26l1.046,1.559-.238,1.15a2.952,2.952,0,0,0,1.355,3.119l.353.215,9.695,4.054a8.544,8.544,0,0,0,4.692.545l3.684-.612,32.979,18.733a8.283,8.283,0,0,0,10.7-2.206l22.552-29.818a15.636,15.636,0,0,0-16.291-11.949" fill="#ab845f"/><path d="M418.89,130.215l-5.174-2.66.331-.643.029-.008a4.28,4.28,0,0,1,5.135,2.64l.011.027Z" fill="#fff"/><path d="M481.517,93.271C480.488,89.631,480,76.9,480,76.9a25.055,25.055,0,0,0-27.263-22.632l-1.878.151a21.511,21.511,0,0,0-19.612,24.105l.66,5.275s11.741-4.753,15.539-15.175c0,0,2.111,2.689,5.089,6.042a10.291,10.291,0,0,0-5.988,2.558,1.2,1.2,0,0,0,1.612,1.769c.154-.14,3.459-3.073,6.971-1.486a61.21,61.21,0,0,0,8.9,8.074l-.282-3.039a4.515,4.515,0,1,1,8.991-.834l.246,2.644a6.681,6.681,0,0,1-2.681,5.99v3.923a39.233,39.233,0,0,0,11.492,27.745l5,5V101.929s-4.25-5.017-5.279-8.658" fill="#282828"/><polygon points="75.436 269.454 71.536 269.454 69.471 209.779 77.5 209.779 75.436 269.454" fill="#505050"/><polygon points="127.436 269.454 123.536 269.454 121.471 209.779 129.5 209.779 127.436 269.454" fill="#505050"/><polygon points="143.436 269.454 139.536 269.454 137.471 209.779 145.5 209.779 143.436 269.454" fill="#505050"/><polygon points="208.436 269.454 204.536 269.454 202.471 209.779 210.5 209.779 208.436 269.454" fill="#505050"/><rect x="62.197" y="200.819" width="79.561" height="10.311" fill="#737373"/><rect x="141.5" y="200.5" width="78" height="10" fill="#939393"/><polygon points="166.617 166.465 143.5 166.465 147.736 200.5 162.382 200.5 166.617 166.465" fill="#fff"/><rect x="100.175" y="190.316" width="14.409" height="10.503" fill="#939393"/><rect x="114.5" y="190.5" width="22" height="11" fill="#b2b2b2"/><polygon points="461.862 98.258 467.298 99.494 463.517 90.977 468.954 92.213 461.862 98.258" fill="#fff"/><path d="M473.012,128.484l.3-4.216a3.263,3.263,0,0,0-5-2.992l-.546.346Z" fill="#f08400"/><path d="M471.839,168.524s-2.294,1.676-10.676.529c-6.429-.879-23.5-10.842-31.1-15.437a12.915,12.915,0,0,0-8.2-1.768l-5.39.065a11.118,11.118,0,0,1-3.808-.623l-1.2-.419a4.521,4.521,0,0,0-3.815.387l9.695,4.054a8.545,8.545,0,0,0,4.693.545l2.311-.384a3.93,3.93,0,0,1,2.583.459l31.767,18.045a8.281,8.281,0,0,0,10.7-2.2l2.452-3.243Z" fill="#b48f75"/><polygon points="491.942 141.954 492.926 145.716 488.89 145.782 491.942 141.954" fill="#df6c47"/></svg>